<svg width="148" height="140" viewBox="0 0 148 140" fill="none" xmlns="http://www.w3.org/2000/svg">
<path d="M71.5915 22.2728L82.4059 10.8182" stroke="#F1F5F9" stroke-width="3.40789" stroke-linecap="round"/>
<path d="M135.206 67.4545L146.02 56" stroke="#2873FF" stroke-width="3.40789" stroke-linecap="round"/>
<path d="M109.124 134.273L119.938 122.818" stroke="#FACC15" stroke-width="3.40789" stroke-linecap="round"/>
<path d="M3.52472 61.7274L14.3391 50.2729" stroke="#FACC15" stroke-width="3.40789" stroke-linecap="round"/>
<path d="M32.1509 123.455L42.9653 112" stroke="#2873FF" stroke-width="3.40789" stroke-linecap="round"/>
<ellipse cx="53.7797" cy="2.54545" rx="2.54456" ry="2.54545" fill="#2873FF"/>
<ellipse cx="42.3292" cy="26.0908" rx="2.54456" ry="2.54545" fill="#F1F5F9"/>
<ellipse cx="22.6088" cy="74.4547" rx="2.54456" ry="2.54545" fill="#F1F5F9"/>
<ellipse cx="3.5246" cy="106.273" rx="2.54456" ry="2.54545" fill="#2873FF"/>
<ellipse cx="60.1409" cy="137.455" rx="2.54456" ry="2.54545" fill="#F1F5F9"/>
<ellipse cx="99.5815" cy="112" rx="3.1807" ry="3.18182" fill="#FACC15"/>
<ellipse cx="129.481" cy="96.0911" rx="3.1807" ry="3.18182" fill="#F1F5F9"/>
<ellipse cx="117.394" cy="24.1818" rx="3.1807" ry="3.18182" fill="#2873FF"/>
<ellipse cx="113.577" cy="53.4544" rx="1.90842" ry="1.90909" fill="#F1F5F9"/>
<ellipse cx="9.24967" cy="26.7273" rx="1.90842" ry="1.90909" fill="#FACC15"/>
<ellipse cx="73.5" cy="70.6364" rx="31.807" ry="31.8182" fill="#2873FF"/>
<path d="M84.8713 63.398L70.3991 77.8747L63.163 70.6367" stroke="white" stroke-width="5.67982" stroke-linecap="round" stroke-linejoin="round"/>
</svg>
